<svg width="40" height="40" viewBox="0 0 161 105" fill="none" xmlns="http://www.w3.org/2000/svg">
<path d="M37.888 103C36.928 103 36.064 102.664 35.296 101.992C34.624 101.224 34.288 100.36 34.288 99.4V30.856L14.56 45.976C13.888 46.552 13.168 46.84 12.4 46.84C11.344 46.84 10.384 46.264 9.52 45.112L1.024 34.024C0.544 33.256 0.304 32.536 0.304 31.864C0.304 30.52 0.88 29.512 2.032 28.84L35.152 3.208C36.208 2.53599 37.36 2.19999 38.608 2.19999H56.608C57.664 2.19999 58.528 2.53599 59.2 3.208C59.872 3.87999 60.208 4.74399 60.208 5.8L60.208 99.4C60.208 100.36 59.872 101.224 59.2 101.992C58.528 102.664 57.664 103 56.608 103H37.888ZM118.394 104.44C105.146 104.344 95.1141 100.84 88.2981 93.928C81.4821 86.92 77.7861 77.752 77.2101 66.424C77.0181 61.24 76.9221 56.632 76.9221 52.6C76.9221 48.472 77.0181 43.72 77.2101 38.344C77.5941 31.144 79.3221 24.76 82.3941 19.192C85.5621 13.528 90.1701 9.064 96.2181 5.8C102.266 2.44 109.658 0.759995 118.394 0.759995C131.354 0.855993 141.338 4.35999 148.346 11.272C155.354 18.184 159.146 27.208 159.722 38.344C159.914 43.72 160.01 48.472 160.01 52.6C160.01 56.632 159.914 61.24 159.722 66.424C159.05 77.752 155.306 86.92 148.49 93.928C141.674 100.84 131.642 104.344 118.394 104.44ZM118.394 83.56C123.098 83.56 126.602 82.024 128.906 78.952C131.306 75.784 132.602 71.368 132.794 65.704C132.986 62.92 133.082 58.456 133.082 52.312C133.082 46.168 132.986 41.8 132.794 39.208C132.602 33.736 131.354 29.416 129.05 26.248C126.746 23.08 123.194 21.448 118.394 21.352C113.69 21.448 110.138 23.08 107.738 26.248C105.434 29.416 104.186 33.736 103.994 39.208C103.898 41.8 103.85 46.168 103.85 52.312C103.85 58.456 103.898 62.92 103.994 65.704C104.474 77.608 109.274 83.56 118.394 83.56Z" fill="#F6F6F6" fill-opacity="0.8"/>
</svg>
