<svg width="40" height="40" viewBox="0 0 158 103" fill="none" xmlns="http://www.w3.org/2000/svg">
<path d="M37.888 101C36.928 101 36.064 100.664 35.296 99.992C34.624 99.224 34.288 98.36 34.288 97.4V28.856L14.56 43.976C13.888 44.552 13.168 44.84 12.4 44.84C11.344 44.84 10.384 44.264 9.52 43.112L1.024 32.024C0.544 31.256 0.304 30.536 0.304 29.864C0.304 28.52 0.88 27.512 2.032 26.84L35.152 1.208C36.208 0.535995 37.36 0.199993 38.608 0.199993H56.608C57.664 0.199993 58.528 0.535995 59.2 1.208C59.872 1.87999 60.208 2.74399 60.208 3.8L60.208 97.4C60.208 98.36 59.872 99.224 59.2 99.992C58.528 100.664 57.664 101 56.608 101H37.888ZM115.658 102.584C107.018 102.584 99.6261 101.24 93.4821 98.552C87.3381 95.768 82.6341 92.072 79.3701 87.464C76.2021 82.856 74.5221 77.864 74.3301 72.488C74.3301 71.624 74.6181 70.904 75.1941 70.328C75.7701 69.752 76.4901 69.464 77.3541 69.464H96.6501C98.8581 69.464 100.394 70.376 101.258 72.2C103.85 78.632 108.698 81.848 115.802 81.848C120.026 81.848 123.578 80.552 126.458 77.96C129.434 75.272 130.922 71.576 130.922 66.872C130.922 62.648 129.482 59.192 126.602 56.504C123.818 53.816 120.218 52.472 115.802 52.472C113.306 52.472 111.29 52.808 109.754 53.48C108.314 54.056 106.826 54.92 105.29 56.072C103.658 57.32 102.362 57.944 101.402 57.944H82.5381C81.6741 57.944 80.9061 57.656 80.2341 57.08C79.6581 56.408 79.3701 55.64 79.3701 54.776L84.5541 4.52C84.6501 3.176 85.1301 2.12 85.9941 1.352C86.9541 0.583994 88.0581 0.199993 89.3061 0.199993H147.05C148.106 0.199993 148.97 0.535995 149.642 1.208C150.41 1.87999 150.794 2.74399 150.794 3.8V17.336C150.794 18.392 150.41 19.256 149.642 19.928C148.97 20.6 148.106 20.936 147.05 20.936L105.29 20.936L103.418 39.512C105.818 37.88 108.458 36.68 111.338 35.912C114.218 35.048 117.962 34.616 122.57 34.616C128.618 34.616 134.33 36.008 139.706 38.792C145.082 41.48 149.354 45.32 152.522 50.312C155.786 55.304 157.418 61.016 157.418 67.448C157.418 74.264 155.738 80.36 152.378 85.736C149.018 91.016 144.17 95.144 137.834 98.12C131.594 101.096 124.202 102.584 115.658 102.584Z" fill="#F6F6F6" fill-opacity="0.8"/>
</svg>
