<svg width="24" height="40" viewBox="0 0 86 103" fill="none" xmlns="http://www.w3.org/2000/svg">
<path d="M42.8 102.44C33.488 102.44 25.664 101 19.328 98.12C13.088 95.24 8.432 91.688 5.36 87.464C2.384 83.144 0.8 78.824 0.608 74.504C0.608 73.64 0.896 72.92 1.472 72.344C2.144 71.768 2.912 71.48 3.776 71.48H22.64C23.696 71.48 24.56 71.672 25.232 72.056C25.904 72.44 26.528 73.16 27.104 74.216C29.024 79.208 34.256 81.704 42.8 81.704C47.696 81.704 51.488 80.6 54.176 78.392C56.96 76.088 58.352 72.968 58.352 69.032C58.352 61.352 53.36 57.512 43.376 57.512H27.392C26.432 57.512 25.568 57.176 24.8 56.504C24.128 55.736 23.792 54.872 23.792 53.912V45.848C23.792 43.736 24.56 42.104 26.096 40.952L49.712 20.936H9.68C8.72 20.936 7.856 20.6 7.088 19.928C6.416 19.16 6.08 18.296 6.08 17.336V3.8C6.08 2.74399 6.416 1.87999 7.088 1.208C7.856 0.535995 8.72 0.199993 9.68 0.199993L75.92 0.199993C76.976 0.199993 77.84 0.535995 78.512 1.208C79.28 1.87999 79.664 2.74399 79.664 3.8V16.04C79.664 17.864 78.896 19.448 77.36 20.792L55.472 41.096L56.48 41.384C65.312 42.536 72.272 45.512 77.36 50.312C82.544 55.016 85.136 61.784 85.136 70.616C85.136 77.048 83.312 82.664 79.664 87.464C76.016 92.264 70.976 95.96 64.544 98.552C58.112 101.144 50.864 102.44 42.8 102.44Z" fill="#F6F6F6" fill-opacity="0.8"/>
</svg>
