<svg width="40" height="40" viewBox="0 0 182 105" fill="none" xmlns="http://www.w3.org/2000/svg">
<path d="M42.672 104.44C33.456 104.44 25.68 103.048 19.344 100.264C13.008 97.48 8.256 93.688 5.088 88.888C2.016 84.088 0.48 78.712 0.48 72.76C0.48 67.672 1.728 63.112 4.224 59.08C6.816 54.952 10.224 51.736 14.448 49.432C11.088 47.224 8.496 44.44 6.672 41.08C4.944 37.72 4.08 33.88 4.08 29.56C4.08 24.088 5.472 19.192 8.256 14.872C11.136 10.456 15.456 6.99999 21.216 4.504C26.976 2.008 34.128 0.759995 42.672 0.759995C55.248 0.759995 64.752 3.39999 71.184 8.68C77.712 13.96 80.976 20.872 80.976 29.416C80.976 38.152 77.616 44.824 70.896 49.432C75.216 51.544 78.624 54.664 81.12 58.792C83.712 62.92 85.008 67.624 85.008 72.904C85.008 78.856 83.424 84.232 80.256 89.032C77.088 93.736 72.288 97.48 65.856 100.264C59.52 103.048 51.792 104.44 42.672 104.44ZM42.672 42.232C46.896 42.136 50.352 41.032 53.04 38.92C55.728 36.808 57.072 34.072 57.072 30.712C57.072 27.256 55.728 24.472 53.04 22.36C50.352 20.248 46.896 19.192 42.672 19.192C38.448 19.192 34.992 20.248 32.304 22.36C29.616 24.472 28.272 27.256 28.272 30.712C28.272 34.168 29.616 36.952 32.304 39.064C34.992 41.176 38.448 42.232 42.672 42.232ZM42.672 86.008C47.376 86.008 51.264 84.808 54.336 82.408C57.408 80.008 58.944 76.792 58.944 72.76C58.944 68.728 57.408 65.56 54.336 63.256C51.264 60.856 47.376 59.656 42.672 59.656C37.968 59.656 34.032 60.856 30.864 63.256C27.792 65.56 26.256 68.728 26.256 72.76C26.256 76.792 27.792 80.008 30.864 82.408C34.032 84.808 37.968 86.008 42.672 86.008ZM140.269 104.44C127.021 104.344 116.989 100.84 110.173 93.928C103.357 86.92 99.6611 77.752 99.0851 66.424C98.8931 61.24 98.7971 56.632 98.7971 52.6C98.7971 48.472 98.8931 43.72 99.0851 38.344C99.4691 31.144 101.197 24.76 104.269 19.192C107.437 13.528 112.045 9.064 118.093 5.8C124.141 2.44 131.533 0.759995 140.269 0.759995C153.229 0.855993 163.213 4.35999 170.221 11.272C177.229 18.184 181.021 27.208 181.597 38.344C181.789 43.72 181.885 48.472 181.885 52.6C181.885 56.632 181.789 61.24 181.597 66.424C180.925 77.752 177.181 86.92 170.365 93.928C163.549 100.84 153.517 104.344 140.269 104.44ZM140.269 83.56C144.973 83.56 148.477 82.024 150.781 78.952C153.181 75.784 154.477 71.368 154.669 65.704C154.861 62.92 154.957 58.456 154.957 52.312C154.957 46.168 154.861 41.8 154.669 39.208C154.477 33.736 153.229 29.416 150.925 26.248C148.621 23.08 145.069 21.448 140.269 21.352C135.565 21.448 132.013 23.08 129.613 26.248C127.309 29.416 126.061 33.736 125.869 39.208C125.773 41.8 125.725 46.168 125.725 52.312C125.725 58.456 125.773 62.92 125.869 65.704C126.349 77.608 131.149 83.56 140.269 83.56Z" fill="#F6F6F6" fill-opacity="0.8"/>
</svg>
