<svg width="40" height="40" viewBox="0 0 179 105" fill="none" xmlns="http://www.w3.org/2000/svg">
<path d="M21.056 103C20.192 103 19.472 102.712 18.896 102.136C18.32 101.464 18.032 100.696 18.032 99.832C18.032 99.16 18.224 98.536 18.608 97.96L38.912 70.168C37.664 70.456 36.272 70.6 34.736 70.6C28.784 70.216 23.168 68.584 17.888 65.704C12.608 62.824 8.336 58.888 5.072 53.896C1.808 48.904 0.176 43.192 0.176 36.76C0.176 30.424 1.76 24.52 4.928 19.048C8.096 13.576 12.752 9.16 18.896 5.8C25.136 2.44 32.624 0.759995 41.36 0.759995C50.192 0.759995 57.776 2.29599 64.112 5.368C70.544 8.44 75.392 12.664 78.656 18.04C81.92 23.32 83.552 29.224 83.552 35.752C83.552 41.032 82.448 45.832 80.24 50.152C78.128 54.472 74.96 59.56 70.736 65.416C70.544 65.608 69.776 66.664 68.432 68.584L45.392 100.12C44.048 102.04 42.32 103 40.208 103H21.056ZM41.648 51.592C46.064 51.592 49.712 50.248 52.592 47.56C55.472 44.872 56.912 41.224 56.912 36.616C56.912 32.008 55.472 28.36 52.592 25.672C49.712 22.888 46.064 21.496 41.648 21.496C37.232 21.496 33.584 22.888 30.704 25.672C27.92 28.36 26.528 32.008 26.528 36.616C26.528 41.224 27.968 44.872 30.848 47.56C33.728 50.248 37.328 51.592 41.648 51.592ZM137.066 104.44C123.818 104.344 113.786 100.84 106.97 93.928C100.154 86.92 96.458 77.752 95.882 66.424C95.69 61.24 95.594 56.632 95.594 52.6C95.594 48.472 95.69 43.72 95.882 38.344C96.266 31.144 97.994 24.76 101.066 19.192C104.234 13.528 108.842 9.064 114.89 5.8C120.938 2.44 128.33 0.759995 137.066 0.759995C150.026 0.855993 160.01 4.35999 167.018 11.272C174.026 18.184 177.818 27.208 178.394 38.344C178.586 43.72 178.682 48.472 178.682 52.6C178.682 56.632 178.586 61.24 178.394 66.424C177.722 77.752 173.978 86.92 167.162 93.928C160.346 100.84 150.314 104.344 137.066 104.44ZM137.066 83.56C141.77 83.56 145.274 82.024 147.578 78.952C149.978 75.784 151.274 71.368 151.466 65.704C151.658 62.92 151.754 58.456 151.754 52.312C151.754 46.168 151.658 41.8 151.466 39.208C151.274 33.736 150.026 29.416 147.722 26.248C145.418 23.08 141.866 21.448 137.066 21.352C132.362 21.448 128.81 23.08 126.41 26.248C124.106 29.416 122.858 33.736 122.666 39.208C122.57 41.8 122.522 46.168 122.522 52.312C122.522 58.456 122.57 62.92 122.666 65.704C123.146 77.608 127.946 83.56 137.066 83.56Z" fill="#F6F6F6" fill-opacity="0.8"/>
</svg>
