<svg version="1.1" xmlns="http://www.w3.org/2000/svg" width="20" height="20" fill="#99bbc6" viewBox="0 0 32 32">
<title>user</title>
<path d="M16 0c-3.829 0-6.933 3.104-6.933 6.933 0.004 3.827 3.106 6.929 6.933 6.933 3.829 0 6.933-3.104 6.933-6.933s-3.104-6.933-6.933-6.933zM16 12.8c-3.24 0-5.867-2.627-5.867-5.867 0.004-3.238 2.628-5.863 5.867-5.867 3.24 0 5.867 2.627 5.867 5.867s-2.627 5.867-5.867 5.867z"></path>
<path d="M16 14.933c-8.837 0-16 7.163-16 16 0 0.181 0.006 0.357 0.016 0.533 0 0.011 0 0.022 0 0.033 0.005 0.033 0.014 0.066 0.026 0.098 0.005 0.030 0.012 0.059 0.022 0.087 0.018 0.034 0.040 0.067 0.065 0.097 0.015 0.024 0.031 0.046 0.049 0.067 0.033 0.028 0.068 0.052 0.107 0.072 0.019 0.014 0.039 0.027 0.060 0.038 0.065 0.027 0.134 0.041 0.204 0.041h30.901c0.070-0 0.139-0.014 0.203-0.041 0.021-0.012 0.041-0.025 0.061-0.039 0.038-0.020 0.074-0.044 0.107-0.071 0.018-0.021 0.035-0.044 0.049-0.068 0.050-0.049 0.080-0.114 0.087-0.183 0.012-0.032 0.020-0.064 0.026-0.098 0-0.011 0-0.022 0-0.033h0.001c0.010-0.176 0.016-0.352 0.016-0.533 0-8.837-7.163-16-16-16zM1.067 30.933c0-8.247 6.686-14.933 14.933-14.933s14.933 6.686 14.933 14.933h-29.867z"></path>
</svg>
